<?xml version="1.0" encoding="iso-8859-1"?>
<!-- Generator: Adobe Illustrator 19.0.0, SVG Export Plug-In . SVG Version: 6.00 Build 0)  -->
<svg version="1.1" id="Capa_1" xmlns="http://www.w3.org/2000/svg" xmlns:xlink="http://www.w3.org/1999/xlink" x="0px" y="0px"
	 viewBox="0 0 511.999 511.999" style="enable-background:new 0 0 511.999 511.999;" xml:space="preserve">
<path style="fill:#8BCE34;" d="M511.392,439.118L315.353,68.039c-1.94-3.672-7.193-3.687-9.154-0.027L107.402,439.091
	c-1.85,3.454,0.652,7.633,4.57,7.633h394.836C510.713,446.724,513.217,442.57,511.392,439.118z"/>
<path style="fill:#79B510;" d="M506.806,446.724H479.26L292.603,93.404l13.598-25.396c1.954-3.652,7.21-3.641,9.154,0.031
	l196.039,371.073C513.214,442.569,510.715,446.724,506.806,446.724z"/>
<path style="fill:#E7EBEC;" d="M409.716,246.667l-42.831,50.363c-2.089,2.382-5.807,2.35-7.854-0.067l-66.92-79.003
	c-2.035-2.402-5.724-2.451-7.822-0.104l-35.398,39.612c-2.17,2.428-6.014,2.278-7.989-0.311l-21.163-27.755L306.2,68.016
	c1.961-3.66,7.215-3.645,9.155,0.027L409.716,246.667z"/>
<path style="fill:#CDD7D9;" d="M409.718,246.664l-22.297,26.219L293.395,93.754c-0.154-0.298-0.34-0.576-0.545-0.823l13.351-24.912
	c1.965-3.662,7.21-3.652,9.154,0.021L409.718,246.664z"/>
<path style="fill:#8BCE34;" d="M289.076,439.118L150.401,176.622c-1.94-3.672-7.193-3.687-9.154-0.027L0.622,439.091
	c-1.85,3.454,0.652,7.633,4.57,7.633h279.3C288.397,446.724,290.9,442.57,289.076,439.118z"/>
<path style="fill:#79B510;" d="M284.487,446.724h-22.413L130.23,197.158l11.016-20.561c1.965-3.662,7.221-3.641,9.154,0.031
	l138.674,262.486C290.905,442.569,288.396,446.724,284.487,446.724z"/>
<path style="fill:#E7EBEC;" d="M246.398,358.345l-28.116,25.913c-2.039,1.88-5.197,1.821-7.165-0.132l-73.481-72.906
	c-2.109-2.093-5.542-1.988-7.52,0.229l-27.607,30.942c-1.864,2.09-5.051,2.321-7.198,0.523l-29.797-24.957l75.73-141.362
	c1.961-3.661,7.215-3.645,9.155,0.027L246.398,358.345z"/>
<path id="SVGCleanerId_0" style="fill:#CDD7D9;" d="M246.398,358.348l-20.86,19.224L130.23,197.158l11.016-20.561
	c0.247-0.453,0.545-0.854,0.874-1.193c0.165-0.175,0.339-0.329,0.524-0.473c0.093-0.072,0.185-0.134,0.288-0.206
	c0.195-0.123,0.391-0.236,0.596-0.339c1.368-0.669,2.983-0.699,4.372-0.092c0.144,0.062,0.278,0.123,0.411,0.206
	c0.843,0.452,1.584,1.162,2.088,2.129L246.398,358.348z"/>
<g>
	<path id="SVGCleanerId_0_1_" style="fill:#CDD7D9;" d="M246.398,358.348l-20.86,19.224L130.23,197.158l11.016-20.561
		c0.247-0.453,0.545-0.854,0.874-1.193c0.165-0.175,0.339-0.329,0.524-0.473c0.093-0.072,0.185-0.134,0.288-0.206
		c0.195-0.123,0.391-0.236,0.596-0.339c1.368-0.669,2.983-0.699,4.372-0.092c0.144,0.062,0.278,0.123,0.411,0.206
		c0.843,0.452,1.584,1.162,2.088,2.129L246.398,358.348z"/>
</g>
<g>
</g>
<g>
</g>
<g>
</g>
<g>
</g>
<g>
</g>
<g>
</g>
<g>
</g>
<g>
</g>
<g>
</g>
<g>
</g>
<g>
</g>
<g>
</g>
<g>
</g>
<g>
</g>
<g>
</g>
</svg>
